<svg xmlns="http://www.w3.org/2000/svg" viewBox="0 0 400 600" fill="none">
  <rect width="400" height="600" rx="20" fill="#1A1A2E"/>
  <rect x="20" y="20" width="360" height="560" rx="16" fill="#2A2A4E"/>
  <circle cx="200" cy="60" r="8" fill="#FF6B00"/>
  <rect x="40" y="90" width="320" height="8" rx="4" fill="#4A4A6A"/>
  <rect x="40" y="110" width="240" height="8" rx="4" fill="#4A4A6A"/>
  <circle cx="80" cy="180" r="30" fill="#FF6B00" opacity="0.2"/>
  <circle cx="80" cy="180" r="15" fill="#FF6B00"/>
  <path d="M80 165 L80 180 L95 180" stroke="#fff" stroke-width="2" stroke-linecap="round"/>
  <rect x="130" y="165" width="180" height="8" rx="4" fill="#FF6B00"/>
  <rect x="130" y="180" width="140" height="6" rx="3" fill="#4A4A6A"/>
  <circle cx="80" cy="260" r="30" fill="#FF6B00" opacity="0.2"/>
  <circle cx="80" cy="260" r="15" fill="#FF6B00"/>
  <path d="M70 255 L80 245 L90 255 M70 265 L80 275 L90 265" stroke="#fff" stroke-width="2" stroke-linecap="round"/>
  <rect x="130" y="245" width="180" height="8" rx="4" fill="#FF6B00"/>
  <rect x="130" y="260" width="140" height="6" rx="3" fill="#4A4A6A"/>
  <circle cx="80" cy="340" r="30" fill="#FF6B00" opacity="0.2"/>
  <circle cx="80" cy="340" r="15" fill="#FF6B00"/>
  <path d="M75 335 L85 335 M80 330 L80 340 M75 345 L85 345" stroke="#fff" stroke-width="2" stroke-linecap="round"/>
  <rect x="130" y="325" width="180" height="8" rx="4" fill="#FF6B00"/>
  <rect x="130" y="340" width="140" height="6" rx="3" fill="#4A4A6A"/>
  <rect x="40" y="420" width="320" height="120" rx="12" fill="#FF6B00" opacity="0.1"/>
  <text x="200" y="475" text-anchor="middle" fill="#FF6B00" font-family="sans-serif" font-size="16" font-weight="bold">Noor Guide</text>
  <text x="200" y="495" text-anchor="middle" fill="#888" font-family="sans-serif" font-size="12">Application de guidage</text>
</svg>