<svg xmlns="http://www.w3.org/2000/svg" viewBox="0 0 600 400" fill="none">
  <rect width="600" height="400" rx="16" fill="#F7F7FA"/>
  <rect x="100" y="60" width="400" height="280" rx="16" fill="#fff" stroke="#E0E0E8"/>
  <rect x="100" y="60" width="400" height="60" rx="16" fill="#1A1A2E"/>
  <text x="300" y="95" text-anchor="middle" fill="#fff" font-family="sans-serif" font-size="16" font-weight="bold">Informations Lieu</text>
  <circle cx="150" cy="160" r="25" fill="#FF6B00" opacity="0.15"/>
  <circle cx="150" cy="160" r="12" fill="#FF6B00"/>
  <rect x="190" y="150" width="150" height="8" rx="4" fill="#1A1A2E"/>
  <rect x="190" y="165" width="120" height="6" rx="3" fill="#4A4A6A"/>
  <circle cx="150" cy="220" r="25" fill="#FF6B00" opacity="0.15"/>
  <circle cx="150" cy="220" r="12" fill="#FF6B00"/>
  <rect x="190" y="210" width="150" height="8" rx="4" fill="#1A1A2E"/>
  <rect x="190" y="225" width="120" height="6" rx="3" fill="#4A4A6A"/>
  <circle cx="150" cy="280" r="25" fill="#FF6B00" opacity="0.15"/>
  <circle cx="150" cy="280" r="12" fill="#FF6B00"/>
  <rect x="190" y="270" width="150" height="8" rx="4" fill="#1A1A2E"/>
  <rect x="190" y="285" width="120" height="6" rx="3" fill="#4A4A6A"/>
  <text x="300" y="370" text-anchor="middle" fill="#4A4A6A" font-family="sans-serif" font-size="14">Informations sur les lieux</text>
</svg>