<svg xmlns="http://www.w3.org/2000/svg" viewBox="0 0 600 400" fill="none">
  <rect width="600" height="400" rx="16" fill="#F7F7FA"/>
  <rect x="50" y="80" width="500" height="240" rx="16" fill="#fff" stroke="#E0E0E8"/>
  <circle cx="120" cy="150" r="25" fill="#FF6B00" opacity="0.15"/>
  <circle cx="120" cy="150" r="12" fill="#FF6B00"/>
  <text x="120" y="155" text-anchor="middle" fill="#fff" font-family="sans-serif" font-size="12" font-weight="bold">1</text>
  <rect x="160" y="140" width="120" height="8" rx="4" fill="#1A1A2E"/>
  <rect x="160" y="155" width="100" height="6" rx="3" fill="#4A4A6A"/>
  <circle cx="120" cy="220" r="25" fill="#FF6B00" opacity="0.15"/>
  <circle cx="120" cy="220" r="12" fill="#FF6B00"/>
  <text x="120" y="225" text-anchor="middle" fill="#fff" font-family="sans-serif" font-size="12" font-weight="bold">2</text>
  <rect x="160" y="210" width="120" height="8" rx="4" fill="#1A1A2E"/>
  <rect x="160" y="225" width="100" height="6" rx="3" fill="#4A4A6A"/>
  <circle cx="120" cy="290" r="25" fill="#FF6B00" opacity="0.15"/>
  <circle cx="120" cy="290" r="12" fill="#FF6B00"/>
  <text x="120" y="295" text-anchor="middle" fill="#fff" font-family="sans-serif" font-size="12" font-weight="bold">3</text>
  <rect x="160" y="280" width="120" height="8" rx="4" fill="#1A1A2E"/>
  <rect x="160" y="295" width="100" height="6" rx="3" fill="#4A4A6A"/>
  <path d="M350 120 L500 120 L500 320 L350 320 Z" fill="#FF6B00" opacity="0.05"/>
  <circle cx="425" cy="180" r="40" fill="#FF6B00" opacity="0.1"/>
  <circle cx="425" cy="180" r="20" fill="#FF6B00"/>
  <path d="M415 180 L425 170 L435 180" stroke="#fff" stroke-width="2" stroke-linecap="round" fill="none"/>
  <path d="M415 180 L425 190 L435 180" stroke="#fff" stroke-width="2" stroke-linecap="round" fill="none"/>
  <text x="300" y="360" text-anchor="middle" fill="#4A4A6A" font-family="sans-serif" font-size="14">Parcours personnalisés</text>
</svg>